<mxfile host="app.diagrams.net" modified="2024-05-24T09:47:53.826Z" agent="Mozilla/5.0 (Windows NT 10.0; Win64; x64) AppleWebKit/537.36 (KHTML, like Gecko) Chrome/124.0.0.0 Safari/537.36" etag="R7vfxSfzPIpLBmgnsDaR" version="24.4.7" type="github">
  <diagram name="Page-1" id="LUoLeQQDcU1MEl5xLvJL">
    <mxGraphModel dx="2074" dy="50" grid="1" gridSize="10" guides="1" tooltips="1" connect="1" arrows="1" fold="1" page="1" pageScale="1" pageWidth="850" pageHeight="1100" math="0" shadow="0">
      <root>
        <mxCell id="0" />
        <mxCell id="1" parent="0" />
        <mxCell id="qlSNl1ecH6xEMk753rMs-1" style="edgeStyle=orthogonalEdgeStyle;rounded=0;orthogonalLoop=1;jettySize=auto;html=1;exitX=0.5;exitY=1;exitDx=0;exitDy=0;entryX=0.5;entryY=0;entryDx=0;entryDy=0;" edge="1" parent="1" source="qlSNl1ecH6xEMk753rMs-2" target="qlSNl1ecH6xEMk753rMs-9">
          <mxGeometry relative="1" as="geometry" />
        </mxCell>
        <mxCell id="qlSNl1ecH6xEMk753rMs-2" value="Doc" style="rounded=1;whiteSpace=wrap;html=1;fillColor=#60a917;fontColor=#ffffff;strokeColor=#2D7600;" vertex="1" parent="1">
          <mxGeometry x="585" y="1430" width="160" height="60" as="geometry" />
        </mxCell>
        <mxCell id="qlSNl1ecH6xEMk753rMs-3" style="edgeStyle=orthogonalEdgeStyle;rounded=0;orthogonalLoop=1;jettySize=auto;html=1;exitX=0.5;exitY=1;exitDx=0;exitDy=0;entryX=0.5;entryY=0;entryDx=0;entryDy=0;" edge="1" parent="1" source="qlSNl1ecH6xEMk753rMs-4" target="qlSNl1ecH6xEMk753rMs-12">
          <mxGeometry relative="1" as="geometry" />
        </mxCell>
        <mxCell id="qlSNl1ecH6xEMk753rMs-4" value="NLTK&lt;div&gt;sent_tokenizer&lt;/div&gt;" style="rhombus;whiteSpace=wrap;html=1;fillColor=#fa6800;fontColor=#000000;strokeColor=#C73500;" vertex="1" parent="1">
          <mxGeometry x="550" y="1670" width="230" height="80" as="geometry" />
        </mxCell>
        <mxCell id="qlSNl1ecH6xEMk753rMs-5" style="edgeStyle=orthogonalEdgeStyle;rounded=0;orthogonalLoop=1;jettySize=auto;html=1;exitX=1;exitY=0.5;exitDx=0;exitDy=0;entryX=0;entryY=0.5;entryDx=0;entryDy=0;" edge="1" parent="1" source="qlSNl1ecH6xEMk753rMs-9" target="qlSNl1ecH6xEMk753rMs-10">
          <mxGeometry relative="1" as="geometry" />
        </mxCell>
        <mxCell id="qlSNl1ecH6xEMk753rMs-6" value="Y" style="edgeLabel;html=1;align=center;verticalAlign=middle;resizable=0;points=[];" vertex="1" connectable="0" parent="qlSNl1ecH6xEMk753rMs-5">
          <mxGeometry x="-0.1647" y="2" relative="1" as="geometry">
            <mxPoint as="offset" />
          </mxGeometry>
        </mxCell>
        <mxCell id="qlSNl1ecH6xEMk753rMs-7" style="edgeStyle=orthogonalEdgeStyle;rounded=0;orthogonalLoop=1;jettySize=auto;html=1;exitX=0.5;exitY=1;exitDx=0;exitDy=0;entryX=0.5;entryY=0;entryDx=0;entryDy=0;" edge="1" parent="1" source="qlSNl1ecH6xEMk753rMs-9" target="qlSNl1ecH6xEMk753rMs-4">
          <mxGeometry relative="1" as="geometry" />
        </mxCell>
        <mxCell id="qlSNl1ecH6xEMk753rMs-8" value="N" style="edgeLabel;html=1;align=center;verticalAlign=middle;resizable=0;points=[];" vertex="1" connectable="0" parent="qlSNl1ecH6xEMk753rMs-7">
          <mxGeometry x="-0.0857" y="2" relative="1" as="geometry">
            <mxPoint as="offset" />
          </mxGeometry>
        </mxCell>
        <mxCell id="qlSNl1ecH6xEMk753rMs-9" value="size &amp;gt; 2M?" style="rhombus;whiteSpace=wrap;html=1;fillColor=#1ba1e2;fontColor=#ffffff;strokeColor=#006EAF;" vertex="1" parent="1">
          <mxGeometry x="595" y="1530" width="140" height="80" as="geometry" />
        </mxCell>
        <mxCell id="qlSNl1ecH6xEMk753rMs-10" value="reject" style="ellipse;whiteSpace=wrap;html=1;aspect=fixed;fillColor=#647687;fontColor=#ffffff;strokeColor=#314354;" vertex="1" parent="1">
          <mxGeometry x="960" y="1530" width="80" height="80" as="geometry" />
        </mxCell>
        <mxCell id="qlSNl1ecH6xEMk753rMs-11" style="edgeStyle=orthogonalEdgeStyle;rounded=0;orthogonalLoop=1;jettySize=auto;html=1;exitX=0.5;exitY=1;exitDx=0;exitDy=0;entryX=0.5;entryY=0;entryDx=0;entryDy=0;" edge="1" parent="1" source="qlSNl1ecH6xEMk753rMs-12" target="qlSNl1ecH6xEMk753rMs-20">
          <mxGeometry relative="1" as="geometry">
            <mxPoint x="665" y="1940" as="targetPoint" />
          </mxGeometry>
        </mxCell>
        <mxCell id="qlSNl1ecH6xEMk753rMs-12" value="process large sentence" style="rhombus;whiteSpace=wrap;html=1;fillColor=#fa6800;fontColor=#000000;strokeColor=#C73500;" vertex="1" parent="1">
          <mxGeometry x="557.5" y="1810" width="215" height="80" as="geometry" />
        </mxCell>
        <mxCell id="qlSNl1ecH6xEMk753rMs-13" value="&lt;div&gt;Split large sentences into smaller sentences ,&lt;span style=&quot;background-color: initial;&quot;&gt;Maximum of 500 tokens per single&lt;/span&gt;&lt;/div&gt;&lt;div&gt;e.g.:&amp;nbsp;&lt;/div&gt;&lt;div&gt;&lt;span style=&quot;background-color: initial;&quot;&gt;input: sentence : 1900 tokens&lt;/span&gt;&lt;/div&gt;&lt;div&gt;output: [sentence1: 500 tokens,&lt;span style=&quot;background-color: initial;&quot;&gt;sentence1: 500 tokens,&lt;/span&gt;&lt;span style=&quot;background-color: initial;&quot;&gt;sentence1: 500 tokens,&lt;/span&gt;&lt;span style=&quot;background-color: initial;&quot;&gt;sentence1: 400 tokens&lt;/span&gt;&lt;span style=&quot;background-color: initial;&quot;&gt;]&lt;/span&gt;&lt;/div&gt;&lt;div&gt;&lt;br&gt;&lt;/div&gt;" style="whiteSpace=wrap;html=1;shape=mxgraph.basic.rectCallout;dx=30;dy=15;boundedLbl=1;align=left;fillColor=#e3c800;fontColor=#000000;strokeColor=#B09500;" vertex="1" parent="1">
          <mxGeometry x="760" y="1750" width="445" height="100" as="geometry" />
        </mxCell>
        <mxCell id="qlSNl1ecH6xEMk753rMs-16" style="edgeStyle=orthogonalEdgeStyle;rounded=0;orthogonalLoop=1;jettySize=auto;html=1;exitX=0.5;exitY=1;exitDx=0;exitDy=0;entryX=0.5;entryY=0;entryDx=0;entryDy=0;" edge="1" parent="1" source="qlSNl1ecH6xEMk753rMs-20" target="qlSNl1ecH6xEMk753rMs-22">
          <mxGeometry relative="1" as="geometry" />
        </mxCell>
        <mxCell id="qlSNl1ecH6xEMk753rMs-17" value="Y" style="edgeLabel;html=1;align=center;verticalAlign=middle;resizable=0;points=[];" vertex="1" connectable="0" parent="qlSNl1ecH6xEMk753rMs-16">
          <mxGeometry x="-0.5333" y="-1" relative="1" as="geometry">
            <mxPoint as="offset" />
          </mxGeometry>
        </mxCell>
        <mxCell id="qlSNl1ecH6xEMk753rMs-18" style="edgeStyle=orthogonalEdgeStyle;rounded=0;orthogonalLoop=1;jettySize=auto;html=1;exitX=0;exitY=0.5;exitDx=0;exitDy=0;entryX=0;entryY=0.5;entryDx=0;entryDy=0;" edge="1" parent="1" source="qlSNl1ecH6xEMk753rMs-20" target="qlSNl1ecH6xEMk753rMs-24">
          <mxGeometry relative="1" as="geometry" />
        </mxCell>
        <mxCell id="qlSNl1ecH6xEMk753rMs-19" value="N" style="edgeLabel;html=1;align=center;verticalAlign=middle;resizable=0;points=[];" vertex="1" connectable="0" parent="qlSNl1ecH6xEMk753rMs-18">
          <mxGeometry x="-0.3658" y="-3" relative="1" as="geometry">
            <mxPoint as="offset" />
          </mxGeometry>
        </mxCell>
        <mxCell id="qlSNl1ecH6xEMk753rMs-20" value="sentences &amp;gt; 10K?" style="rhombus;whiteSpace=wrap;html=1;fillColor=#1ba1e2;fontColor=#ffffff;strokeColor=#006EAF;" vertex="1" parent="1">
          <mxGeometry x="560" y="1950" width="210" height="80" as="geometry" />
        </mxCell>
        <mxCell id="qlSNl1ecH6xEMk753rMs-21" style="edgeStyle=orthogonalEdgeStyle;rounded=0;orthogonalLoop=1;jettySize=auto;html=1;exitX=0.5;exitY=1;exitDx=0;exitDy=0;entryX=0.5;entryY=0;entryDx=0;entryDy=0;" edge="1" parent="1" source="qlSNl1ecH6xEMk753rMs-22" target="qlSNl1ecH6xEMk753rMs-24">
          <mxGeometry relative="1" as="geometry" />
        </mxCell>
        <mxCell id="qlSNl1ecH6xEMk753rMs-22" value="merge sentence" style="rhombus;whiteSpace=wrap;html=1;fillColor=#fa6800;fontColor=#000000;strokeColor=#C73500;" vertex="1" parent="1">
          <mxGeometry x="555" y="2070" width="220" height="80" as="geometry" />
        </mxCell>
        <mxCell id="qlSNl1ecH6xEMk753rMs-23" value="&lt;div&gt;Merge sentences,&amp;nbsp;&lt;/div&gt;&lt;div&gt;&amp;nbsp;merged sentence must not exceed 100 tokens&lt;br&gt;&lt;/div&gt;" style="whiteSpace=wrap;html=1;shape=mxgraph.basic.rectCallout;dx=30;dy=15;boundedLbl=1;align=left;fillColor=#e3c800;fontColor=#000000;strokeColor=#B09500;" vertex="1" parent="1">
          <mxGeometry x="770" y="2050" width="445" height="60" as="geometry" />
        </mxCell>
        <mxCell id="qlSNl1ecH6xEMk753rMs-24" value="finalize sentences" style="rounded=0;whiteSpace=wrap;html=1;fillColor=#60a917;fontColor=#ffffff;strokeColor=#2D7600;" vertex="1" parent="1">
          <mxGeometry x="575" y="2190" width="180" height="60" as="geometry" />
        </mxCell>
        <mxCell id="qlSNl1ecH6xEMk753rMs-25" value="&lt;div style=&quot;font-size: 16px;&quot;&gt;All numbers are default values,&lt;/div&gt;&lt;div style=&quot;font-size: 16px;&quot;&gt;All are configurable&lt;/div&gt;" style="whiteSpace=wrap;html=1;shape=mxgraph.basic.cloud_callout;fontSize=16;fillColor=#f8cecc;strokeColor=#b85450;" vertex="1" parent="1">
          <mxGeometry x="1080" y="1500" width="350" height="180" as="geometry" />
        </mxCell>
      </root>
    </mxGraphModel>
  </diagram>
</mxfile>
